<svg width="325" height="283" viewBox="0 0 325 283" fill="none" xmlns="http://www.w3.org/2000/svg">
<path fill-rule="evenodd" clip-rule="evenodd" d="M162.016 248.781L163 246.792H98.0586L99.0596 248.816C115.943 249.594 129.393 263.529 129.393 280.605C129.393 281.08 129.383 281.552 129.362 282.022L129.393 281.931L129.423 281.993C129.403 281.533 129.393 281.07 129.393 280.605C129.393 263.029 143.641 248.781 161.217 248.781H162.016Z" fill="black"/>
<path fill-rule="evenodd" clip-rule="evenodd" d="M163.939 35.8545L165 38L94.9521 38L96.0318 35.8175C114.243 34.9781 128.751 19.9475 128.751 1.52845C128.751 1.01627 128.739 0.506708 128.717 0L128.751 0.0983376L128.783 0.0308619C128.761 0.527397 128.751 1.02667 128.751 1.52845C128.751 20.4862 144.119 35.8545 163.077 35.8545H163.939Z" fill="black"/>
<path fill-rule="evenodd" clip-rule="evenodd" d="M40 35C17.9086 35 0 52.9086 0 75V209.059C0 231.15 17.9086 249.059 40 249.059H285C307.091 249.059 325 231.15 325 209.059V75C325 52.9086 307.091 35 285 35H40ZM42 78.0059C21.0132 78.0059 4 95.0191 4 116.006V207C4 227.987 21.0132 245 42 245H282C302.987 245 320 227.987 320 207V77C320 56.0132 302.987 39 282 39H184.054C170.489 39 158.037 46.5066 151.703 58.503C145.369 70.4993 132.917 78.0059 119.352 78.0059H42Z" fill="black"/>
</svg>
