<svg width="1440" height="685" viewBox="0 0 1440 685" fill="none" xmlns="http://www.w3.org/2000/svg">
<path fill-rule="evenodd" clip-rule="evenodd" d="M956.305 26.3144C943.797 13.3392 937.543 6.85154 929.482 3.42577C921.422 0 912.411 0 894.388 0H1C0.447715 0 0 0.447704 0 0.999988V684C0 684.552 0.447729 685 1.00001 685H1354C1394.54 685 1414.81 685 1427.41 672.406C1440 659.811 1440 639.541 1440 599V160.236C1440 119.696 1440 99.4253 1427.41 86.8309C1414.81 74.2365 1394.54 74.2365 1354 74.2365H1039.05C1021.03 74.2365 1012.02 74.2365 1003.96 70.8107C995.895 67.3849 989.641 60.8973 977.134 47.922L956.305 26.3144Z" fill="#E2DDD6"/>
</svg>
