<svg width="1170" height="444" viewBox="0 0 1170 444" fill="none" xmlns="http://www.w3.org/2000/svg">
<path fill-rule="evenodd" clip-rule="evenodd" d="M102.982 85.7545C115.385 85.7545 127.184 80.3989 135.349 71.0627L184.651 14.6918C192.816 5.35566 204.615 0 217.018 0H1127C1150.75 0 1170 19.2518 1170 43V401C1170 424.748 1150.75 444 1127 444H904.707C893.854 444 883.402 439.896 875.448 432.51L832.874 392.977C824.92 385.592 814.468 381.487 803.614 381.487H43C19.2518 381.487 0 362.236 0 338.487V128.755C0 105.006 19.2518 85.7545 43 85.7545H102.982Z" fill="#E2DDD6"/>
</svg>
